<?xml version="1.0" encoding="UTF-8"?>
<svg id="Layer_2" data-name="Layer 2" xmlns="http://www.w3.org/2000/svg" viewBox="0 0 282.89 548.82">
  <defs>
    <style>
      .cls-1 {
        fill: #fff;
      }

      .cls-2 {
        fill: #f98600;
      }
    </style>
  </defs>
  <g id="Layer_1-2" data-name="Layer 1">
    <g>
      <polygon class="cls-2" points="279.31 159.05 279.31 516.63 244.66 542.77 279.31 159.05"/>
      <path class="cls-2" d="M282.87,105.66l.03-.02v-.34l-.03.36Z"/>
      <polygon class="cls-2" points="94.94 311.41 94.94 432.27 60.28 458.39 74.39 302.04 94.94 311.41"/>
      <polygon class="cls-2" points="99.8 309.01 99.8 309.02 71.95 296.32 74.1 297.27 99.8 309.01"/>
      <polygon class="cls-2" points="277.54 105.65 241.4 132.88 59.15 49.54 6.04 25.24 50.17 3.42 277.54 105.65"/>
      <path class="cls-2" d="M282.87,105.66l.03-.02v-.34l-.03.36Z"/>
      <path class="cls-1" d="M282.89,104.67l-.84-.39L97.78,21.46l-.44-.2-.31-.14L50.1,0,1.09,24.2l-1.09.56v413.42l56.2,25.64,1.34.63.94-.73,40.04-30.11v-121.78l85.85,39.15v171.57l56.2,25.64,1.36.63.94-.7,40.03-30.16V105.64l-.03.02.03-.36v-.63ZM94.94,432.28l-34.65,26.11,14.1-156.36,20.55,9.37v120.87ZM187.94,488.51v-139.3l-88.14-40.19-27.85-12.7-35.1-16.02-14.43-6.37-.11.85-.69,5.19-.29,2.14-.94,6.41L3.57,404.13V28.72l235.6,107.76-51.23,352.03ZM241.4,132.88L59.16,49.54,6.04,25.24,50.18,3.42l227.37,102.23-36.15,27.23ZM279.31,516.63l-34.65,26.14,34.65-383.72v357.58Z"/>
      <path class="cls-2" d="M239.17,136.48L3.57,28.72v375.41l16.81-115.61.94-6.41.29-2.14.69-5.19.11-.85,14.43,6.37,35.1,16.02,2.14.95,25.7,11.74h0s88.14,40.2,88.14,40.2v139.3l51.23-352.03ZM31.65,223.63l1.29-.63,51.61-25.23,1.29-.64,9.09,4.06v-71.86l-4.73-2.16-6.07,67.08-1.34.66-51.12,25.01-1.4.68,17.09-117.63,140.57,64.26v127.76L31.65,223.63Z"/>
      <path class="cls-1" d="M47.37,102.97l-17.08,117.63,1.4-.68,51.12-25,1.33-.65,6.07-67.09,4.73,2.16v71.86l-9.09-4.06-1.3.64-51.61,25.23-1.28.63,156.29,71.36v-127.76L47.37,102.97ZM184.37,243.33l-85.86-38.23v-75.35l85.86,39.27v74.31Z"/>
    </g>
  </g>
</svg>